<svg width="32" height="32" viewBox="0 0 32 32" fill="none" xmlns="http://www.w3.org/2000/svg">
<path d="M9 16.5V19H23V16.5C23.0021 15.1287 23.5158 13.8075 24.4406 12.795C25.3653 11.7824 26.6345 11.1512 28 11.025V4C28 2.93913 27.5786 1.92172 26.8284 1.17157C26.0783 0.421427 25.0609 0 24 0L8 0C6.93913 0 5.92172 0.421427 5.17157 1.17157C4.42143 1.92172 4 2.93913 4 4V11.025C5.36547 11.1512 6.63471 11.7824 7.55944 12.795C8.48417 13.8075 8.99786 15.1287 9 16.5Z" fill="#B22222"/>
<path d="M28.5 13C27.5717 13 26.6815 13.3687 26.0251 14.0251C25.3687 14.6815 25 15.5717 25 16.5V21H7V16.5C7 15.5717 6.63125 14.6815 5.97487 14.0251C5.3185 13.3687 4.42826 13 3.5 13C2.57174 13 1.6815 13.3687 1.02513 14.0251C0.368749 14.6815 0 15.5717 0 16.5L0 28C0 28.2652 0.105357 28.5196 0.292893 28.7071C0.48043 28.8946 0.734784 29 1 29H4V32H6V29H26V32H28V29H31C31.2652 29 31.5196 28.8946 31.7071 28.7071C31.8946 28.5196 32 28.2652 32 28V16.5C32 15.5717 31.6313 14.6815 30.9749 14.0251C30.3185 13.3687 29.4283 13 28.5 13Z" fill="#B22222"/>
</svg>
