<svg width="37" height="37" viewBox="0 0 37 37" fill="none" xmlns="http://www.w3.org/2000/svg">
<path d="M18.5 24.1448L25.301 20.7443L19.0168 17.6016C18.8563 17.5214 18.6794 17.4796 18.5 17.4796C18.3206 17.4796 18.1436 17.5214 17.9831 17.6016L11.6989 20.7443L18.5 24.1448Z" fill="#20B2AA"/>
<path d="M19.6562 26.1521V34.6875L25.9543 31.5379C26.1464 31.4419 26.3079 31.2944 26.4208 31.1118C26.5338 30.9293 26.5936 30.7189 26.5938 30.5042V22.6833L19.6562 26.1521Z" fill="#20B2AA"/>
<path d="M17.3438 26.1521L10.4062 22.6833V30.5042C10.4064 30.7189 10.4662 30.9293 10.5792 31.1118C10.6921 31.2944 10.8536 31.4419 11.0457 31.5379L17.3438 34.6875V26.1521Z" fill="#20B2AA"/>
<path d="M9.24998 8.2614L16.051 4.85625L9.76682 1.71819C9.60633 1.63799 9.42938 1.59624 9.24998 1.59624C9.07057 1.59624 8.89362 1.63799 8.73313 1.71819L2.44891 4.85625L9.24998 8.2614Z" fill="#20B2AA"/>
<path d="M10.4062 10.2687V18.8041L16.7043 15.6545C16.8964 15.5585 17.0579 15.411 17.1708 15.2284C17.2838 15.0459 17.3436 14.8355 17.3438 14.6208V6.7999L10.4062 10.2687Z" fill="#20B2AA"/>
<path d="M8.09375 10.2687L1.15625 6.7999V14.6208C1.15636 14.8355 1.21624 15.0459 1.32917 15.2284C1.4421 15.411 1.60363 15.5585 1.79566 15.6545L8.09375 18.8041V10.2687Z" fill="#20B2AA"/>
<path d="M27.75 8.2614L34.551 4.85625L28.2668 1.71819C28.1063 1.63799 27.9294 1.59624 27.75 1.59624C27.5706 1.59624 27.3936 1.63799 27.2331 1.71819L20.9489 4.85625L27.75 8.2614Z" fill="#20B2AA"/>
<path d="M28.9062 10.2687V18.8041L35.2043 15.6545C35.3964 15.5585 35.5579 15.411 35.6708 15.2284C35.7838 15.0459 35.8436 14.8355 35.8438 14.6208V6.7999L28.9062 10.2687Z" fill="#20B2AA"/>
<path d="M26.5938 10.2687L19.6562 6.7999V14.6208C19.6564 14.8355 19.7162 15.0459 19.8292 15.2284C19.9421 15.411 20.1036 15.5585 20.2957 15.6545L26.5938 18.8041V10.2687Z" fill="#20B2AA"/>
</svg>
