<svg width="34" height="35" viewBox="0 0 34 35" fill="none" xmlns="http://www.w3.org/2000/svg">
<g clip-path="url(#clip0_5_30)">
<path d="M5.66665 35C7.23145 35 8.49998 33.6942 8.49998 32.0833C8.49998 30.4725 7.23145 29.1667 5.66665 29.1667C4.10184 29.1667 2.83331 30.4725 2.83331 32.0833C2.83331 33.6942 4.10184 35 5.66665 35Z" fill="#20B2AA"/>
<path d="M28.3333 35C29.8981 35 31.1667 33.6942 31.1667 32.0833C31.1667 30.4725 29.8981 29.1667 28.3333 29.1667C26.7685 29.1667 25.5 30.4725 25.5 32.0833C25.5 33.6942 26.7685 35 28.3333 35Z" fill="#20B2AA"/>
<path d="M32.5832 23.3333H3.70867L5.12534 20.4166H26.9165C27.1994 20.4165 27.4758 20.3293 27.7101 20.1661C27.9445 20.0028 28.1259 19.7711 28.2312 19.5008L33.8978 4.91745C33.984 4.69618 34.0161 4.45656 33.9914 4.21954C33.9668 3.98253 33.886 3.75535 33.7563 3.5579C33.6266 3.36046 33.4518 3.19875 33.2473 3.08696C33.0427 2.97516 32.8147 2.91667 32.5832 2.91662H4.83634L2.4195 0.425783C2.15349 0.151947 1.7927 -0.00189209 1.4165 -0.00189209C1.04031 -0.00189209 0.679515 0.151947 0.413503 0.425783C0.147491 0.699619 -0.00195312 1.07102 -0.00195312 1.45828C-0.00195312 1.84555 0.147491 2.21695 0.413503 2.49078L2.83317 4.9787V18.6141L0.150003 24.1383C0.0417745 24.3606 -0.00942393 24.6077 0.00127353 24.8562C0.011971 25.1046 0.0842089 25.3461 0.211122 25.5577C0.338035 25.7693 0.515407 25.944 0.726381 26.0652C0.937355 26.1863 1.17492 26.2499 1.4165 26.2499H32.5832C32.9589 26.2499 33.3192 26.0963 33.5849 25.8228C33.8506 25.5493 33.9998 25.1784 33.9998 24.7916C33.9998 24.4048 33.8506 24.0339 33.5849 23.7604C33.3192 23.4869 32.9589 23.3333 32.5832 23.3333Z" fill="#20B2AA"/>
</g>
<defs>
<clipPath id="clip0_5_30">
<rect width="34" height="35" fill="white"/>
</clipPath>
</defs>
</svg>
